<mxfile host="Electron" agent="Mozilla/5.0 (Macintosh; Intel Mac OS X 10_15_7) AppleWebKit/537.36 (KHTML, like Gecko) draw.io/25.0.2 Chrome/128.0.6613.186 Electron/32.2.5 Safari/537.36" version="25.0.2">
  <diagram name="第 1 页" id="my6psRx36sx4CEshfAXe">
    <mxGraphModel dx="910" dy="682" grid="1" gridSize="10" guides="1" tooltips="1" connect="1" arrows="1" fold="1" page="1" pageScale="1" pageWidth="827" pageHeight="1169" math="0" shadow="0">
      <root>
        <mxCell id="0" />
        <mxCell id="1" parent="0" />
        <mxCell id="9LTyGF_zmnU4k7wedIG_-1" value="&lt;div class=&quot;lake-content&quot;&gt;&lt;strong&gt;&lt;span style=&quot;&quot; class=&quot;ne-text&quot;&gt;luggage belt system&lt;/span&gt;&lt;/strong&gt;&lt;/div&gt;" style="shape=umlFrame;whiteSpace=wrap;html=1;pointerEvents=0;fontColor=default;width=150;height=30;" vertex="1" parent="1">
          <mxGeometry x="20" y="60" width="720" height="550" as="geometry" />
        </mxCell>
        <mxCell id="9LTyGF_zmnU4k7wedIG_-2" value="" style="ellipse;html=1;shape=startState;fillColor=#000000;strokeColor=#ff0000;" vertex="1" parent="1">
          <mxGeometry x="310" y="120" width="30" height="30" as="geometry" />
        </mxCell>
        <mxCell id="9LTyGF_zmnU4k7wedIG_-3" value="" style="edgeStyle=orthogonalEdgeStyle;html=1;verticalAlign=bottom;endArrow=open;endSize=8;strokeColor=#ff0000;rounded=0;" edge="1" source="9LTyGF_zmnU4k7wedIG_-2" parent="1">
          <mxGeometry relative="1" as="geometry">
            <mxPoint x="325" y="200" as="targetPoint" />
          </mxGeometry>
        </mxCell>
        <mxCell id="9LTyGF_zmnU4k7wedIG_-9" value="" style="edgeStyle=orthogonalEdgeStyle;rounded=0;orthogonalLoop=1;jettySize=auto;html=1;" edge="1" parent="1" source="9LTyGF_zmnU4k7wedIG_-6" target="9LTyGF_zmnU4k7wedIG_-8">
          <mxGeometry relative="1" as="geometry" />
        </mxCell>
        <mxCell id="9LTyGF_zmnU4k7wedIG_-6" value="idle" style="rounded=1;whiteSpace=wrap;html=1;" vertex="1" parent="1">
          <mxGeometry x="260" y="200" width="120" height="60" as="geometry" />
        </mxCell>
        <mxCell id="9LTyGF_zmnU4k7wedIG_-26" style="edgeStyle=orthogonalEdgeStyle;rounded=0;orthogonalLoop=1;jettySize=auto;html=1;exitX=1;exitY=0.5;exitDx=0;exitDy=0;entryX=0;entryY=0.5;entryDx=0;entryDy=0;" edge="1" parent="1" source="9LTyGF_zmnU4k7wedIG_-8" target="9LTyGF_zmnU4k7wedIG_-24">
          <mxGeometry relative="1" as="geometry" />
        </mxCell>
        <mxCell id="9LTyGF_zmnU4k7wedIG_-8" value="running" style="whiteSpace=wrap;html=1;rounded=1;" vertex="1" parent="1">
          <mxGeometry x="110" y="370" width="120" height="60" as="geometry" />
        </mxCell>
        <mxCell id="9LTyGF_zmnU4k7wedIG_-10" value="&lt;div class=&quot;lake-content&quot;&gt;&lt;span class=&quot;ne-text&quot; style=&quot;&quot;&gt;pressed the start button&lt;/span&gt;&lt;/div&gt;" style="text;html=1;align=center;verticalAlign=middle;resizable=0;points=[];autosize=1;strokeColor=none;fillColor=none;fontColor=default;" vertex="1" parent="1">
          <mxGeometry x="95" y="200" width="150" height="30" as="geometry" />
        </mxCell>
        <mxCell id="9LTyGF_zmnU4k7wedIG_-20" style="edgeStyle=orthogonalEdgeStyle;rounded=0;orthogonalLoop=1;jettySize=auto;html=1;entryX=0.5;entryY=1;entryDx=0;entryDy=0;exitX=0.5;exitY=1;exitDx=0;exitDy=0;" edge="1" parent="1" source="9LTyGF_zmnU4k7wedIG_-18" target="9LTyGF_zmnU4k7wedIG_-8">
          <mxGeometry relative="1" as="geometry">
            <Array as="points">
              <mxPoint x="660" y="530" />
              <mxPoint x="170" y="530" />
            </Array>
          </mxGeometry>
        </mxCell>
        <mxCell id="9LTyGF_zmnU4k7wedIG_-18" value="stop&amp;nbsp;" style="whiteSpace=wrap;html=1;rounded=1;" vertex="1" parent="1">
          <mxGeometry x="600" y="430" width="120" height="60" as="geometry" />
        </mxCell>
        <mxCell id="9LTyGF_zmnU4k7wedIG_-21" value="&lt;span style=&quot;color: rgba(0, 0, 0, 0); font-family: monospace; font-size: 0px; text-align: start;&quot;&gt;%3CmxGraphModel%3E%3Croot%3E%3CmxCell%20id%3D%220%22%2F%3E%3CmxCell%20id%3D%221%22%20parent%3D%220%22%2F%3E%3CmxCell%20id%3D%222%22%20value%3D%22need%20distributing%22%20style%3D%22text%3Bhtml%3D1%3Balign%3Dcenter%3BverticalAlign%3Dmiddle%3Bresizable%3D0%3Bpoints%3D%5B%5D%3Bautosize%3D1%3BstrokeColor%3Dnone%3BfillColor%3Dnone%3B%22%20vertex%3D%221%22%20parent%3D%221%22%3E%3CmxGeometry%20x%3D%22170%22%20y%3D%22290%22%20width%3D%22110%22%20height%3D%2230%22%20as%3D%22geometry%22%2F%3E%3C%2FmxCell%3E%3C%2Froot%3E%3C%2FmxGraphModel%3E&lt;/span&gt;" style="text;html=1;align=center;verticalAlign=middle;resizable=0;points=[];autosize=1;strokeColor=none;fillColor=none;" vertex="1" parent="1">
          <mxGeometry x="360" y="498" width="20" height="30" as="geometry" />
        </mxCell>
        <mxCell id="9LTyGF_zmnU4k7wedIG_-23" value="need distributing" style="text;html=1;align=center;verticalAlign=middle;resizable=0;points=[];autosize=1;strokeColor=none;fillColor=none;" vertex="1" parent="1">
          <mxGeometry x="370" y="500" width="110" height="30" as="geometry" />
        </mxCell>
        <mxCell id="9LTyGF_zmnU4k7wedIG_-32" value="" style="edgeStyle=orthogonalEdgeStyle;rounded=0;orthogonalLoop=1;jettySize=auto;html=1;exitX=0.5;exitY=0;exitDx=0;exitDy=0;" edge="1" parent="1" source="9LTyGF_zmnU4k7wedIG_-24" target="9LTyGF_zmnU4k7wedIG_-31">
          <mxGeometry relative="1" as="geometry" />
        </mxCell>
        <mxCell id="9LTyGF_zmnU4k7wedIG_-40" style="edgeStyle=orthogonalEdgeStyle;rounded=0;orthogonalLoop=1;jettySize=auto;html=1;exitX=0.5;exitY=1;exitDx=0;exitDy=0;entryX=0;entryY=0.5;entryDx=0;entryDy=0;" edge="1" parent="1" source="9LTyGF_zmnU4k7wedIG_-24" target="9LTyGF_zmnU4k7wedIG_-18">
          <mxGeometry relative="1" as="geometry" />
        </mxCell>
        <mxCell id="9LTyGF_zmnU4k7wedIG_-24" value="" style="rhombus;whiteSpace=wrap;html=1;" vertex="1" parent="1">
          <mxGeometry x="320" y="365" width="50" height="70" as="geometry" />
        </mxCell>
        <mxCell id="9LTyGF_zmnU4k7wedIG_-34" style="edgeStyle=orthogonalEdgeStyle;rounded=0;orthogonalLoop=1;jettySize=auto;html=1;exitX=0.5;exitY=0;exitDx=0;exitDy=0;entryX=1;entryY=0.5;entryDx=0;entryDy=0;" edge="1" parent="1" source="9LTyGF_zmnU4k7wedIG_-31" target="9LTyGF_zmnU4k7wedIG_-6">
          <mxGeometry relative="1" as="geometry" />
        </mxCell>
        <mxCell id="9LTyGF_zmnU4k7wedIG_-31" value="" style="rhombus;whiteSpace=wrap;html=1;" vertex="1" parent="1">
          <mxGeometry x="490" y="310" width="50" height="70" as="geometry" />
        </mxCell>
        <mxCell id="9LTyGF_zmnU4k7wedIG_-38" value="emergency" style="text;html=1;align=center;verticalAlign=middle;resizable=0;points=[];autosize=1;strokeColor=none;fillColor=none;" vertex="1" parent="1">
          <mxGeometry x="230" y="368" width="80" height="30" as="geometry" />
        </mxCell>
        <mxCell id="9LTyGF_zmnU4k7wedIG_-41" value="yes/ press stop" style="text;html=1;align=center;verticalAlign=middle;resizable=0;points=[];autosize=1;strokeColor=none;fillColor=none;" vertex="1" parent="1">
          <mxGeometry x="370" y="428" width="100" height="30" as="geometry" />
        </mxCell>
        <mxCell id="9LTyGF_zmnU4k7wedIG_-42" value="&lt;div class=&quot;lake-content&quot;&gt;&lt;span style=&quot;&quot; class=&quot;ne-text&quot;&gt;no luggage for more than 90s&lt;/span&gt;&lt;/div&gt;" style="text;html=1;align=center;verticalAlign=middle;resizable=0;points=[];autosize=1;strokeColor=none;fillColor=none;fontColor=default;" vertex="1" parent="1">
          <mxGeometry x="280" y="310" width="180" height="30" as="geometry" />
        </mxCell>
        <mxCell id="9LTyGF_zmnU4k7wedIG_-43" value="yes" style="text;html=1;align=center;verticalAlign=middle;resizable=0;points=[];autosize=1;strokeColor=none;fillColor=none;" vertex="1" parent="1">
          <mxGeometry x="520" y="258" width="40" height="30" as="geometry" />
        </mxCell>
      </root>
    </mxGraphModel>
  </diagram>
</mxfile>
